<svg width="26" height="31" viewBox="0 0 26 31" fill="none" xmlns="http://www.w3.org/2000/svg">
<g clip-path="url(#clip0)">
<path d="M11.2276 22.3879C11.1266 22.4888 11.063 22.6289 11.063 22.7822V23.5335V24.2867C11.063 24.4418 11.1247 24.5801 11.2276 24.681C11.3286 24.782 11.4689 24.8455 11.6223 24.8455C11.7757 24.8455 11.916 24.782 12.017 24.681C12.118 24.5801 12.1816 24.4399 12.1816 24.2867V23.5335V22.7822C12.1816 22.6271 12.1199 22.4888 12.017 22.3879C11.916 22.2869 11.7757 22.2234 11.6223 22.2234C11.4689 22.2234 11.3286 22.2869 11.2276 22.3879Z" fill="white"/>
<path d="M24.4511 16.7905C23.527 15.4841 22.3747 14.4805 20.9025 13.8021C20.8988 13.8002 20.8969 13.7983 20.8932 13.7965H20.895L20.8969 13.7946C22.023 13.1648 22.9658 12.2471 23.6299 11.1445C24.294 10.0399 24.6756 8.74661 24.6756 7.36547C24.6756 5.33207 23.8506 3.49117 22.5169 2.15862C21.1812 0.8242 19.3387 0 17.3034 0H16.4186H15.5338C14.8772 0 14.2767 0.252306 13.8278 0.667209C13.3788 1.08211 13.0795 1.66148 13.029 2.31374L12.4379 9.82125L11.9103 16.484H12.0937C12.4828 16.5195 12.8288 16.7008 13.0776 16.9718C13.3264 17.2428 13.4779 17.6054 13.4779 18.0016V18.1716V18.3417V18.4165V18.4912C13.4779 18.751 13.4387 19.0071 13.362 19.2538C13.2853 19.4986 13.173 19.7341 13.0271 19.9471L12.8625 20.1882L12.6979 20.4293C12.696 20.433 12.6941 20.4368 12.6923 20.4405C12.6904 20.4443 12.6904 20.448 12.6904 20.4536V22.3431V24.2307C12.6904 24.483 12.61 24.7279 12.4697 24.926C12.3275 25.1222 12.1255 25.2717 11.8804 25.3278C11.5306 25.4082 11.1995 25.3184 10.9563 25.1222C10.7131 24.926 10.5579 24.6269 10.5579 24.2905V22.3711V20.4517C10.5579 20.448 10.5579 20.4443 10.556 20.4405C10.5541 20.4368 10.5523 20.433 10.5504 20.4293L10.3858 20.1882L10.2212 19.9471C10.0753 19.7322 9.96114 19.4986 9.88632 19.2538C9.80962 19.0089 9.77034 18.751 9.77034 18.4912V18.2464V18.0016C9.77034 17.6035 9.92186 17.2428 10.1725 16.9718C10.4213 16.7008 10.7674 16.5195 11.1565 16.484H11.3473L10.8123 9.81938L10.2156 2.31187C10.1632 1.65961 9.86574 1.08211 9.41492 0.667209C8.96597 0.252306 8.36549 0 7.71077 0H4.08734H0.465789C0.336715 0 0.220735 0.0523301 0.136557 0.136432C0.0523779 0.220534 0 0.336408 0 0.465364L0.00187064 15.5009L0.00374128 30.5365C0.00374128 30.6655 0.0561191 30.7813 0.140298 30.8654C0.224477 30.9495 0.340456 31.0019 0.46953 31.0019H7.69206H14.9146C14.9445 31.0019 14.9726 30.9963 15.0025 30.9963C17.5092 30.9813 20.3712 30.3515 22.4177 28.8507C24.6905 27.1818 26.015 24.483 26.0019 21.6778C25.9888 19.5752 25.1844 17.8278 24.4511 16.7905Z" fill="white"/>
</g>
<defs>
<clipPath id="clip0">
<rect width="26" height="31" fill="white"/>
</clipPath>
</defs>
</svg>
