<svg width="29" height="49" viewBox="0 0 29 49" fill="none" xmlns="http://www.w3.org/2000/svg">
<g clip-path="url(#clip0)">
<path d="M3.31727 -0.000123978C4.26104 -0.000123978 5.16867 0.180682 6 0.514168C6.83132 0.843636 7.58635 1.32578 8.23695 1.92445C8.88353 2.52312 9.40964 3.24232 9.7992 4.0459C10.1888 4.84948 10.4418 5.73744 10.5422 6.67763C10.8193 9.22096 11.3735 14.2674 11.9357 19.3782C12.498 24.489 13.0683 29.66 13.3775 32.4444C13.1004 32.5127 12.8353 32.6172 12.5944 32.7578C12.3534 32.8985 12.1365 33.0752 11.9518 33.2802C11.7229 33.5293 11.5382 33.8226 11.4096 34.144C11.2811 34.4654 11.2129 34.815 11.2129 35.1846V35.4097V35.6347V35.8597V36.0847C11.2129 36.3257 11.2289 36.5628 11.2651 36.7999C11.3012 37.0369 11.3534 37.2659 11.4257 37.4949C11.494 37.7199 11.5823 37.9449 11.6867 38.1579C11.7912 38.3708 11.9076 38.5798 12.0442 38.7767L12.1968 38.9976L12.3494 39.2186L12.502 39.4396L12.6546 39.6606C12.6546 39.6646 12.6586 39.6686 12.6586 39.6686C12.6586 39.6727 12.6627 39.6767 12.6627 39.6807C12.6627 39.6847 12.6626 39.6887 12.6667 39.6927C12.6667 39.6968 12.6667 39.7008 12.6667 39.7048V41.4767V43.2486V45.0205V46.7924C12.6667 47.1017 12.739 47.3991 12.8675 47.6602C12.996 47.9214 13.1807 48.1504 13.4056 48.3312C13.6305 48.512 13.8956 48.6446 14.1847 48.7129C14.4739 48.7812 14.7871 48.7852 15.1124 48.7089C15.3414 48.6567 15.5462 48.5602 15.7309 48.4357C15.9157 48.3071 16.0723 48.1504 16.2048 47.9656C16.3373 47.7848 16.4378 47.5799 16.506 47.3629C16.5743 47.1459 16.6145 46.9169 16.6145 46.6839V44.9401V43.1923V41.4486V39.7048C16.6145 39.7008 16.6145 39.6968 16.6145 39.6927C16.6145 39.6887 16.6145 39.6847 16.6185 39.6807C16.6225 39.6767 16.6225 39.6727 16.6225 39.6686C16.6225 39.6646 16.6265 39.6606 16.6265 39.6606L16.7791 39.4396L16.9317 39.2186L17.0843 38.9976L17.2369 38.7767C17.3735 38.5798 17.494 38.3708 17.5944 38.1579C17.6988 37.9449 17.7871 37.724 17.8554 37.4949C17.9237 37.2699 17.9799 37.0369 18.0161 36.7999C18.0522 36.5628 18.0683 36.3257 18.0683 36.0847V36.0163V35.9481V35.8797V35.8114V35.6547V35.498V35.3413V35.1846C18.0683 34.815 18 34.4654 17.8715 34.144C17.743 33.8226 17.5582 33.5293 17.3293 33.2802C17.1647 33.0994 16.9759 32.9427 16.7711 32.8101C16.5663 32.6775 16.3373 32.573 16.1004 32.4967L17.3815 19.5872L18.6626 6.67763C18.7349 5.73342 18.988 4.84547 19.3855 4.04189C19.7831 3.2383 20.3213 2.52312 20.9679 1.92043C21.6145 1.32177 22.3735 0.839617 23.2048 0.510149C24.0361 0.176663 24.9438 -0.00414276 25.8876 -0.00414276H27.1647H28.4418H29.7189H30.996C31.3373 -0.00414276 31.6787 0.00389261 32.0161 0.0199642V-30.2268H1V-0.000123978H3.31727ZM13.6024 46.1053V45.4102V44.7151V44.02C13.6024 43.8794 13.6305 43.7428 13.6827 43.6182C13.7349 43.4937 13.8112 43.3852 13.9036 43.2888C13.996 43.1963 14.1084 43.12 14.2329 43.0678C14.3574 43.0155 14.49 42.9874 14.6345 42.9874C14.7751 42.9874 14.9116 43.0155 15.0361 43.0678C15.1606 43.12 15.2691 43.1963 15.3655 43.2888C15.4578 43.3812 15.5341 43.4937 15.5863 43.6182C15.6386 43.7428 15.6667 43.8794 15.6667 44.02V44.7151V45.4102V46.1053V46.8004C15.6667 46.941 15.6386 47.0776 15.5863 47.2022C15.5341 47.3267 15.4578 47.4352 15.3655 47.5317C15.2731 47.6241 15.1606 47.7004 15.0361 47.7526C14.9116 47.8049 14.7751 47.833 14.6345 47.833C14.49 47.833 14.3574 47.8049 14.2329 47.7526C14.1084 47.7004 14 47.6241 13.9036 47.5317C13.8112 47.4393 13.7349 47.3267 13.6827 47.2022C13.6305 47.0776 13.6024 46.941 13.6024 46.8004V46.1053Z" fill="#343346"/>
</g>
<defs>
<clipPath id="clip0">
<rect width="29" height="49" fill="white"/>
</clipPath>
</defs>
</svg>
